<svg aria-hidden="true" style="position:absolute;width:0;height:0" xmlns="http://www.w3.org/2000/svg" overflow="hidden"><defs><symbol id="icon-cake" viewBox="0 0 32 32"><path d="M25.5 9c-.295 0-.58.037-.857.097a3.489 3.489 0 0 0-3.476-3.264c-.415 0-.808.085-1.177.218C18.84 4.223 16.818 3 14.5 3c-3.522 0-6.373 2.807-6.48 6.303A3.982 3.982 0 0 0 6.5 9a4 4 0 0 0-4 4 3.99 3.99 0 0 0 3.833 3.982l1.604-1.604L9.559 17h.758l1.621-1.622L13.559 17h.758l1.621-1.622L17.559 17h.758l1.621-1.622L21.559 17h.758l1.621-1.622 1.616 1.616A3.996 3.996 0 0 0 25.5 9zM24 16.566L22.566 18h-1.258l-1.371-1.371L18.566 18h-1.258l-1.371-1.371L14.566 18h-1.258l-1.371-1.371L10.566 18H9.309l-1.371-1.371L6.566 18H6.5l2.65 11h13.625L25.5 18h-.066L24 16.566zM11.5 28l-2.083-9h1l2.083 9h-1zm2 0l-1.062-9h1l1.062 9h-1zm3 0h-1v-9h1v9zm1 0l1.062-9h1L18.5 28h-1zm3 0h-1l2.062-9h1L20.5 28z"/></symbol><symbol id="icon-transformers" viewBox="0 0 32 32"><path d="M25.115 5.265l.045-1.455c-2.694-1.348-5.686-2.155-8.973-2.155S9.534 2.462 6.84 3.81l.045 1.455L16 11.246l9.115-5.981zM16 4.556c1.875 0 3.448.601 3.448.601L16 7.474l-3.448-2.317s1.573-.601 3.448-.601zm2.073 19.421v-7.02l.468-6.035L16 12.593l-2.479-1.671.53 6.035v7.02h4.022zM12.39 10.276L5.601 5.75l-.045-1.761H1.56l.593 8.55 4.85 3.466h5.927l-.54-5.729zm-7.705.377l6.412 3.018.107.989-6.357-2.875-.162-1.132zm-.27-3.071l6.358 3.071.161 1.069-6.411-2.955-.108-1.185zm-.107 18.967l4.735 2.424v-9.412l-2.796-1.74v-1.078l-2.748-1.886.809 11.692zm8.746-1.557V17.98l-3.071 1.562v10.186l1.384.861 1.886-4.598h5.496l1.886 4.598 1.446-.861V19.543l-3.071-1.562v7.012h-5.956zm1.114 2.078l-1.401 3.932h6.466l-1.4-3.932h-3.665zm4.903-11.066h5.927l4.85-3.466.593-8.55h-3.996l-.046 1.762-6.79 4.526-.538 5.728zm8.082-4.219l-6.421 3 .171-1.114 6.412-3.018-.162 1.132zm.324-3.018l-6.412 3.018.162-1.132 6.358-3.071-.108 1.185zm1.023 6.089l-2.747 1.886v1.078l-2.755 1.74v9.412l4.694-2.424.808-11.692z"/></symbol><symbol id="icon-batman" viewBox="0 0 39 32"><path d="M19.5 4.25C8.73 4.25 0 9.511 0 16s8.73 11.75 19.5 11.75S39 22.489 39 16 30.27 4.25 19.5 4.25zm11.055 19.28c0 .062 1.951-2.357.39-3.981-1.874-2.124-5.116 1.056-5.116 1.056-2.562-5.059-6.424 3.145-6.424 3.145s-3.348-7.731-6.221-3.047c.062 0-2.383-2.793-4.819-1.481-1.749 1.749 0 4.091 0 4.091-9.119-3.186-9.712-12.492 2.952-16.286-3.576 4.481 6.59 10.649 5.84-.344l2.155 1.89s2.171-1.796 2.171-1.921c-.25 10.993 9.369 4.544 6.121.484 11.429 3.308 13.381 11.21 2.951 16.394z"/></symbol><symbol id="icon-skeletor" viewBox="0 0 32 32"><path d="M19.971 14.602c.578-.088 1.666-.472 2.049-.771.418-.244.635-.534.648-.872a5.804 5.804 0 0 0-.07-1.501 243.73 243.73 0 0 1-.295-1.663c-1.176 1.853-2.771 3.103-4.786 3.752l-.224.486c.947.609 1.84.798 2.678.569zm-6.551-1.055c-2.028-.649-3.631-1.899-4.807-3.752-.095.622-.189 1.176-.284 1.663s-.115.986-.061 1.501c.027.352.243.642.649.872.306.252 1.511.723 2.028.771.838.229 1.73.04 2.678-.568l-.203-.487zm.598 3.468c-.155.406-.125 1.037.092 1.578h.941v-2.978c-.393.528-.878.994-1.033 1.4zm2.035 1.578h.908c.054-.148.095-.438.122-.554s.041-.24.041-.375c0-.365-.079-.696-.235-.994s-.564-.648-.836-1.055v2.978zm10.515-9.939c.203.798.271 1.609.203 2.434a7.466 7.466 0 0 1-2.109 4.604l1.116 2.13-1.644 1.866c-2.326-1.11-3.063.044-3.063 1.663V28h-1.047v-5.964h-.946V28H17.99v-5.964h-.938V28h-1.034v-5.964h-.938V28h-1.033v-5.946l-.939-.018V28h-1.09v-5.964h-.943V28H10.04v-6.649c0-1.625-.867-2.855-3.198-1.663l-1.683-1.866 1.176-2.13c-1.271-1.298-1.951-2.951-2.1-4.613a7.395 7.395 0 0 1 .182-2.445c.997-4.056 4.496-4.698 5.182-4.807a42.642 42.642 0 0 1 11.737 0c.669.115 4.213.819 5.232 4.827z"/></symbol><symbol id="icon-chat" viewBox="0 0 32 32"><path d="M25.785 4.952H6.215a2.237 2.237 0 0 0-2.236 2.236v12.488a2.237 2.237 0 0 0 2.236 2.236h3.729l.001 5.137 5.704-5.137h10.137a2.236 2.236 0 0 0 2.236-2.236V7.188a2.237 2.237 0 0 0-2.237-2.236zM10 13.969a1 1 0 1 1 0-2 1 1 0 0 1 0 2zm4-.042a1 1 0 1 1 0-2 1 1 0 0 1 0 2zm4.02.021a1 1 0 1 1 0-2 1 1 0 0 1 0 2zm3.98.021a1 1 0 1 1 0-2 1 1 0 0 1 0 2z"/></symbol><symbol id="icon-envelope" viewBox="0 0 32 32"><path d="M16.015 18.861l-4.072-3.343-8.862 10.463h25.876l-8.863-10.567-4.079 3.447zM29.926 6.019H2.111l13.908 11.698L29.926 6.019zm-9.221 8.868l9.291 11.084V7.019l-9.291 7.868zM2.004 7.019v18.952l9.291-11.084-9.291-7.868z"/></symbol><symbol id="icon-lightning" viewBox="0 0 32 32"><path d="M24.653 10.866s.479-6.444-5.426-7.18c-5.062-.517-6.602 4.187-6.602 4.187s-1.523-1.466-3.592-.269C7.182 8.747 7.51 10.838 7.51 10.838s-4.11.8-4.11 4.99c.113 4.258 4.437 4.151 4.437 4.151l4.583-.031 2.194-5.018 6.395.125-2.844 4.915 5.846.051s3.871.046 4.576-3.942c.271-4.354-3.934-5.213-3.934-5.213zm-5.259 5.084h-4.123l-2.632 6.017h3.772l-3.071 6.792 6.667-7.833h-3.508l2.895-4.976z"/></symbol><symbol id="icon-paperplane" viewBox="0 0 32 32"><path d="M3.363 4.414l4.875 19.348 9.467-3.018-8.448-10.298 10.902 9.56 8.853-2.77L3.363 4.414zm14.641 23.172v-5.324l-3.116.926 3.116 4.398z"/></symbol><symbol id="icon-globe" viewBox="0 0 32 32"><path d="M22.658 10.988h5.172A13.492 13.492 0 0 1 29.008 16h-5.934a34.522 34.522 0 0 0-.416-5.012zm-2.26-7.092c2.967 1.153 5.402 3.335 6.928 6.09H22.49c-.549-2.805-1.383-4.799-2.092-6.09zm-4.33 6.09V2.99c1.066.047 2.102.216 3.092.493.75 1.263 1.719 3.372 2.33 6.503h-5.422zM9.489 22.014a34.514 34.514 0 0 1-.421-5.012h5.998v5.012H9.489zm-.01-11.026h5.587V16H9.062c.025-1.886.183-3.543.417-5.012zm2.509-7.527a13.463 13.463 0 0 1 3.078-.469v6.994H9.644c.615-3.148 1.591-5.265 2.344-6.525zM3.661 9.986a13.58 13.58 0 0 1 7.096-6.131c-.715 1.29-1.559 3.295-2.114 6.131H3.661zM8.06 16H2a13.412 13.412 0 0 1 1.158-5.012h5.316A34.696 34.696 0 0 0 8.06 16zm.427 6.014h-5.29c-.694-1.543-1.139-3.224-1.204-5.012h6.071a34.24 34.24 0 0 0 .423 5.012zm.164 1.002c.559 2.864 1.416 4.867 2.134 6.142a13.544 13.544 0 0 1-7.11-6.142h4.976zm6.415 0v6.994a13.41 13.41 0 0 1-3.045-.46c-.755-1.236-1.736-3.363-2.356-6.534h5.401zm6.405 0c-.617 3.152-1.592 5.271-2.344 6.512-.979.271-2.006.418-3.059.465v-6.977h5.403zm-5.403-6.014h5.998a34.237 34.237 0 0 1-.422 5.012h-5.576v-5.012zM22.072 16h-6.004v-5.012h5.586A34.49 34.49 0 0 1 22.072 16zm.998 1.002h5.926c-.066 1.787-.506 3.468-1.197 5.012h-5.152c.234-1.471.398-3.119.423-5.012zm4.248 6.014a13.5 13.5 0 0 1-6.947 6.1c.715-1.276 1.561-3.266 2.113-6.1h4.834z"/></symbol><symbol id="icon-facebook" viewBox="0 0 20 20"><path d="M17 1H3c-1.1 0-2 .9-2 2v14c0 1.101.9 2 2 2h7v-7H8V9.525h2v-2.05c0-2.164 1.212-3.684 3.766-3.684l1.803.002v2.605h-1.197c-.994 0-1.372.746-1.372 1.438v1.69h2.568L15 12h-2v7h4c1.1 0 2-.899 2-2V3c0-1.1-.9-2-2-2z"/></symbol><symbol id="icon-instagram" viewBox="0 0 20 20"><path d="M17 1H3c-1.1 0-2 .9-2 2v14c0 1.101.9 2 2 2h14c1.1 0 2-.899 2-2V3c0-1.1-.9-2-2-2zM9.984 15.523a5.539 5.539 0 0 0 5.538-5.539c0-.338-.043-.664-.103-.984H17v7.216a.69.69 0 0 1-.693.69H3.693a.69.69 0 0 1-.693-.69V9h1.549c-.061.32-.104.646-.104.984a5.54 5.54 0 0 0 5.539 5.539zM6.523 9.984a3.461 3.461 0 0 1 3.462-3.461 3.461 3.461 0 1 1 0 6.923 3.461 3.461 0 0 1-3.462-3.462zM16.307 6h-1.615A.694.694 0 0 1 14 5.308V3.691c0-.382.31-.691.691-.691h1.615c.384 0 .694.309.694.691v1.616c0 .381-.31.693-.693.693z"/></symbol><symbol id="icon-twitter" viewBox="0 0 20 20"><path d="M17.316 6.246c.008.162.011.326.011.488 0 4.99-3.797 10.742-10.74 10.742-2.133 0-4.116-.625-5.787-1.697a7.577 7.577 0 0 0 5.588-1.562 3.779 3.779 0 0 1-3.526-2.621 3.858 3.858 0 0 0 1.705-.065 3.779 3.779 0 0 1-3.028-3.703v-.047a3.766 3.766 0 0 0 1.71.473 3.775 3.775 0 0 1-1.168-5.041 10.716 10.716 0 0 0 7.781 3.945 3.813 3.813 0 0 1-.097-.861 3.773 3.773 0 0 1 3.774-3.773 3.77 3.77 0 0 1 2.756 1.191 7.602 7.602 0 0 0 2.397-.916 3.789 3.789 0 0 1-1.66 2.088 7.55 7.55 0 0 0 2.168-.594 7.623 7.623 0 0 1-1.884 1.953z"/></symbol><symbol id="icon-youtube-with-circle" viewBox="0 0 20 20"><path d="M11.603 9.833L9.357 8.785C9.161 8.694 9 8.796 9 9.013v1.974c0 .217.161.319.357.228l2.245-1.048c.197-.092.197-.242.001-.334zM10 .4C4.698.4.4 4.698.4 10s4.298 9.6 9.6 9.6 9.6-4.298 9.6-9.6S15.302.4 10 .4zm0 13.5c-4.914 0-5-.443-5-3.9s.086-3.9 5-3.9 5 .443 5 3.9-.086 3.9-5 3.9z"/></symbol></defs></svg>