<svg aria-hidden="true" style="position: absolute; width: 0; height: 0; overflow: hidden;" version="1.1" xmlns="http://www.w3.org/2000/svg" xmlns:xlink="http://www.w3.org/1999/xlink">
<defs>
<symbol id="icon-cake" viewBox="0 0 32 32">
<title>cake</title>
<path d="M25.5 9c-0.295 0-0.58 0.037-0.857 0.097-0.123-1.821-1.624-3.264-3.476-3.264-0.415 0-0.808 0.085-1.177 0.218-1.15-1.828-3.172-3.051-5.49-3.051-3.522 0-6.373 2.807-6.48 6.303-0.469-0.193-0.981-0.303-1.52-0.303-2.209 0-4 1.791-4 4 0 2.152 1.703 3.894 3.833 3.982l1.604-1.604 1.622 1.622h0.758l1.621-1.622 1.621 1.622h0.758l1.621-1.622 1.621 1.622h0.758l1.621-1.622 1.621 1.622h0.758l1.621-1.622 1.616 1.616c2.183-0.029 3.946-1.803 3.946-3.994 0-2.209-1.791-4-4-4zM24 16.566l-1.434 1.434h-1.258l-1.371-1.371-1.371 1.371h-1.258l-1.371-1.371-1.371 1.371h-1.258l-1.371-1.371-1.371 1.371h-1.257l-1.371-1.371-1.372 1.371h-0.066l2.65 11h13.625l2.725-11h-0.066l-1.434-1.434zM11.5 28l-2.083-9h1l2.083 9h-1zM13.5 28l-1.062-9h1l1.062 9h-1zM16.5 28h-1v-9h1v9zM17.5 28l1.062-9h1l-1.062 9h-1zM20.5 28h-1l2.062-9h1l-2.062 9z"></path>
</symbol>
<symbol id="icon-transformers" viewBox="0 0 32 32">
<title>transformers</title>
<path d="M25.115 5.265l0.045-1.455c-2.694-1.348-5.686-2.155-8.973-2.155s-6.653 0.807-9.347 2.155l0.045 1.455 9.115 5.981 9.115-5.981zM16 4.556c1.875 0 3.448 0.601 3.448 0.601l-3.448 2.317-3.448-2.317c0 0 1.573-0.601 3.448-0.601zM18.073 23.977v-7.020l0.468-6.035-2.541 1.671-2.479-1.671 0.53 6.035v7.020h4.022zM12.39 10.276l-6.789-4.526-0.045-1.761h-3.996l0.593 8.55 4.85 3.466h5.927l-0.54-5.729zM4.685 10.653l6.412 3.018 0.107 0.989-6.357-2.875-0.162-1.132zM4.415 7.582l6.358 3.071 0.161 1.069-6.411-2.955-0.108-1.185zM4.308 26.549l4.735 2.424v-9.412l-2.796-1.74v-1.078l-2.748-1.886 0.809 11.692zM13.054 24.992v-7.012l-3.071 1.562v10.186l1.384 0.861 1.886-4.598h5.496l1.886 4.598 1.446-0.861v-10.185l-3.071-1.562v7.012h-5.956zM14.168 27.070l-1.401 3.932h6.466l-1.4-3.932h-3.665zM19.071 16.004h5.927l4.85-3.466 0.593-8.55h-3.996l-0.046 1.762-6.79 4.526-0.538 5.728zM27.153 11.785l-6.421 3 0.171-1.114 6.412-3.018-0.162 1.132zM27.477 8.767l-6.412 3.018 0.162-1.132 6.358-3.071-0.108 1.185zM28.5 14.856l-2.747 1.886v1.078l-2.755 1.74v9.412l4.694-2.424 0.808-11.692z"></path>
</symbol>
<symbol id="icon-batman" viewBox="0 0 39 32">
<title>batman</title>
<path d="M19.5 4.25c-10.77 0-19.5 5.261-19.5 11.75s8.73 11.75 19.5 11.75 19.5-5.261 19.5-11.75-8.73-11.75-19.5-11.75zM30.555 23.53c0 0.062 1.951-2.357 0.39-3.981-1.874-2.124-5.116 1.056-5.116 1.056-2.562-5.059-6.424 3.145-6.424 3.145s-3.348-7.731-6.221-3.047c0.062 0-2.383-2.793-4.819-1.481-1.749 1.749 0 4.091 0 4.091-9.119-3.186-9.712-12.492 2.952-16.286-3.576 4.481 6.59 10.649 5.84-0.344l2.155 1.89c0 0 2.171-1.796 2.171-1.921-0.25 10.993 9.369 4.544 6.121 0.484 11.429 3.308 13.381 11.21 2.951 16.394z"></path>
</symbol>
<symbol id="icon-skeletor" viewBox="0 0 32 32">
<title>skeletor</title>
<path d="M19.971 14.602c0.578-0.088 1.666-0.472 2.049-0.771 0.418-0.244 0.635-0.534 0.648-0.872 0.041-0.515 0.018-1.015-0.070-1.501-0.088-0.487-0.187-1.041-0.295-1.663-1.176 1.853-2.771 3.103-4.786 3.752l-0.224 0.486c0.947 0.609 1.84 0.798 2.678 0.569v0zM13.42 13.547c-2.028-0.649-3.631-1.899-4.807-3.752-0.095 0.622-0.189 1.176-0.284 1.663s-0.115 0.986-0.061 1.501c0.027 0.352 0.243 0.642 0.649 0.872 0.306 0.252 1.511 0.723 2.028 0.771 0.838 0.229 1.73 0.040 2.678-0.568l-0.203-0.487zM14.018 17.015c-0.155 0.406-0.125 1.037 0.092 1.578h0.941v-2.978c-0.393 0.528-0.878 0.994-1.033 1.4zM16.053 18.593h0.908c0.054-0.148 0.095-0.438 0.122-0.554s0.041-0.24 0.041-0.375c0-0.365-0.079-0.696-0.235-0.994s-0.564-0.648-0.836-1.055v2.978zM26.568 8.654c0.203 0.798 0.271 1.609 0.203 2.434-0.135 1.65-0.838 3.306-2.109 4.604l1.116 2.13-1.644 1.866c-2.326-1.11-3.063 0.044-3.063 1.663v6.649h-1.047v-5.964h-0.946v5.964h-1.088v-5.964h-0.938v5.964h-1.034v-5.964h-0.938v5.964h-1.033v-5.946l-0.939-0.018v5.964h-1.090v-5.964h-0.943v5.964h-1.035v-6.649c0-1.625-0.867-2.855-3.198-1.663l-1.683-1.866 1.176-2.13c-1.271-1.298-1.951-2.951-2.1-4.613-0.075-0.833-0.014-1.647 0.182-2.445 0.997-4.056 4.496-4.698 5.182-4.807 3.905-0.541 7.818-0.541 11.737 0 0.669 0.115 4.213 0.819 5.232 4.827z"></path>
</symbol>
<symbol id="icon-chat" viewBox="0 0 32 32">
<title>chat</title>
<path d="M25.785 4.952h-19.57c-1.235 0-2.236 1.002-2.236 2.236v12.488c0 1.234 1.001 2.236 2.236 2.236h3.729l0.001 5.137 5.704-5.137h10.137c1.236 0 2.236-1.002 2.236-2.236v-12.488c-0.001-1.234-1.001-2.236-2.237-2.236zM10 13.969c-0.553 0-1-0.448-1-1 0-0.553 0.447-1 1-1 0.552 0 1 0.447 1 1 0 0.552-0.448 1-1 1zM14 13.927c-0.553 0-1-0.448-1-1 0-0.553 0.447-1 1-1 0.552 0 1 0.447 1 1 0 0.552-0.448 1-1 1zM18.020 13.948c-0.552 0-1-0.447-1-1 0-0.552 0.448-1 1-1 0.553 0 1 0.448 1 1s-0.448 1-1 1zM22 13.969c-0.553 0-1-0.448-1-1 0-0.553 0.447-1 1-1 0.552 0 1 0.447 1 1 0 0.552-0.448 1-1 1z"></path>
</symbol>
<symbol id="icon-envelope" viewBox="0 0 32 32">
<title>envelope</title>
<path d="M16.015 18.861l-4.072-3.343-8.862 10.463h25.876l-8.863-10.567-4.079 3.447zM29.926 6.019h-27.815l13.908 11.698 13.907-11.698zM20.705 14.887l9.291 11.084v-18.952l-9.291 7.868zM2.004 7.019v18.952l9.291-11.084-9.291-7.868z"></path>
</symbol>
<symbol id="icon-lightning" viewBox="0 0 32 32">
<title>lightning</title>
<path d="M24.653 10.866c0 0 0.479-6.444-5.426-7.18-5.062-0.517-6.602 4.187-6.602 4.187s-1.523-1.466-3.592-0.269c-1.851 1.143-1.523 3.234-1.523 3.234s-4.11 0.8-4.11 4.99c0.113 4.258 4.437 4.151 4.437 4.151l4.583-0.031 2.194-5.018 6.395 0.125-2.844 4.915 5.846 0.051c0 0 3.871 0.046 4.576-3.942 0.271-4.354-3.934-5.213-3.934-5.213zM19.394 15.95h-4.123l-2.632 6.017h3.772l-3.071 6.792 6.667-7.833h-3.508l2.895-4.976z"></path>
</symbol>
<symbol id="icon-paperplane" viewBox="0 0 32 32">
<title>paperplane</title>
<path d="M3.363 4.414l4.875 19.348 9.467-3.018-8.448-10.298 10.902 9.56 8.853-2.77-25.649-12.822zM18.004 27.586v-5.324l-3.116 0.926 3.116 4.398z"></path>
</symbol>
<symbol id="icon-globe" viewBox="0 0 32 32">
<title>globe</title>
<path d="M22.658 10.988h5.172c0.693 1.541 1.107 3.229 1.178 5.012h-5.934c-0.025-1.884-0.181-3.544-0.416-5.012zM20.398 3.896c2.967 1.153 5.402 3.335 6.928 6.090h-4.836c-0.549-2.805-1.383-4.799-2.092-6.090zM16.068 9.986v-6.996c1.066 0.047 2.102 0.216 3.092 0.493 0.75 1.263 1.719 3.372 2.33 6.503h-5.422zM9.489 22.014c-0.234-1.469-0.396-3.119-0.421-5.012h5.998v5.012h-5.577zM9.479 10.988h5.587v5.012h-6.004c0.025-1.886 0.183-3.543 0.417-5.012zM11.988 3.461c0.987-0.266 2.015-0.435 3.078-0.469v6.994h-5.422c0.615-3.148 1.591-5.265 2.344-6.525zM3.661 9.986c1.551-2.8 4.062-4.993 7.096-6.131-0.715 1.29-1.559 3.295-2.114 6.131h-4.982zM8.060 16h-6.060c0.066-1.781 0.467-3.474 1.158-5.012h5.316c-0.233 1.469-0.39 3.128-0.414 5.012zM8.487 22.014h-5.29c-0.694-1.543-1.139-3.224-1.204-5.012h6.071c0.024 1.893 0.188 3.541 0.423 5.012zM8.651 23.016c0.559 2.864 1.416 4.867 2.134 6.142-3.045-1.133-5.557-3.335-7.11-6.142h4.976zM15.066 23.016v6.994c-1.052-0.033-2.067-0.199-3.045-0.46-0.755-1.236-1.736-3.363-2.356-6.534h5.401zM21.471 23.016c-0.617 3.152-1.592 5.271-2.344 6.512-0.979 0.271-2.006 0.418-3.059 0.465v-6.977h5.403zM16.068 17.002h5.998c-0.023 1.893-0.188 3.542-0.422 5.012h-5.576v-5.012zM22.072 16h-6.004v-5.012h5.586c0.235 1.469 0.393 3.126 0.418 5.012zM23.070 17.002h5.926c-0.066 1.787-0.506 3.468-1.197 5.012h-5.152c0.234-1.471 0.398-3.119 0.423-5.012zM27.318 23.016c-1.521 2.766-3.967 4.949-6.947 6.1 0.715-1.276 1.561-3.266 2.113-6.1h4.834z"></path>
</symbol>
<symbol id="icon-facebook" viewBox="0 0 20 20">
<title>facebook</title>
<path d="M17 1h-14c-1.1 0-2 0.9-2 2v14c0 1.101 0.9 2 2 2h7v-7h-2v-2.475h2v-2.050c0-2.164 1.212-3.684 3.766-3.684l1.803 0.002v2.605h-1.197c-0.994 0-1.372 0.746-1.372 1.438v1.69h2.568l-0.568 2.474h-2v7h4c1.1 0 2-0.899 2-2v-14c0-1.1-0.9-2-2-2z"></path>
</symbol>
<symbol id="icon-instagram" viewBox="0 0 20 20">
<title>instagram</title>
<path d="M17 1h-14c-1.1 0-2 0.9-2 2v14c0 1.101 0.9 2 2 2h14c1.1 0 2-0.899 2-2v-14c0-1.1-0.9-2-2-2zM9.984 15.523c3.059 0 5.538-2.481 5.538-5.539 0-0.338-0.043-0.664-0.103-0.984h1.581v7.216c0 0.382-0.31 0.69-0.693 0.69h-12.614c-0.383 0-0.693-0.308-0.693-0.69v-7.216h1.549c-0.061 0.32-0.104 0.646-0.104 0.984 0 3.059 2.481 5.539 5.539 5.539zM6.523 9.984c0-1.912 1.55-3.461 3.462-3.461s3.462 1.549 3.462 3.461-1.551 3.462-3.462 3.462c-1.913 0-3.462-1.55-3.462-3.462zM16.307 6h-1.615c-0.382 0-0.692-0.312-0.692-0.692v-1.617c0-0.382 0.31-0.691 0.691-0.691h1.615c0.384 0 0.694 0.309 0.694 0.691v1.616c0 0.381-0.31 0.693-0.693 0.693z"></path>
</symbol>
<symbol id="icon-twitter" viewBox="0 0 20 20">
<title>twitter</title>
<path d="M17.316 6.246c0.008 0.162 0.011 0.326 0.011 0.488 0 4.99-3.797 10.742-10.74 10.742-2.133 0-4.116-0.625-5.787-1.697 0.296 0.035 0.596 0.053 0.9 0.053 1.77 0 3.397-0.604 4.688-1.615-1.651-0.031-3.046-1.121-3.526-2.621 0.23 0.043 0.467 0.066 0.71 0.066 0.345 0 0.679-0.045 0.995-0.131-1.727-0.348-3.028-1.873-3.028-3.703 0-0.016 0-0.031 0-0.047 0.509 0.283 1.092 0.453 1.71 0.473-1.013-0.678-1.68-1.832-1.68-3.143 0-0.691 0.186-1.34 0.512-1.898 1.861 2.285 4.644 3.787 7.781 3.945-0.064-0.277-0.097-0.564-0.097-0.861 0-2.084 1.689-3.773 3.774-3.773 1.086 0 2.067 0.457 2.756 1.191 0.859-0.17 1.667-0.484 2.397-0.916-0.282 0.881-0.881 1.621-1.66 2.088 0.764-0.092 1.49-0.293 2.168-0.594-0.506 0.758-1.146 1.422-1.884 1.953z"></path>
</symbol>
<symbol id="icon-youtube-with-circle" viewBox="0 0 20 20">
<title>youtube-with-circle</title>
<path d="M11.603 9.833l-2.246-1.048c-0.196-0.091-0.357 0.011-0.357 0.228v1.974c0 0.217 0.161 0.319 0.357 0.228l2.245-1.048c0.197-0.092 0.197-0.242 0.001-0.334zM10 0.4c-5.302 0-9.6 4.298-9.6 9.6s4.298 9.6 9.6 9.6 9.6-4.298 9.6-9.6-4.298-9.6-9.6-9.6zM10 13.9c-4.914 0-5-0.443-5-3.9s0.086-3.9 5-3.9 5 0.443 5 3.9-0.086 3.9-5 3.9z"></path>
</symbol>
</defs>
</svg>
